PathFileType	4	(X/Y/Z)	/Users/itak/Documents/Research/Walk-IL/dataset/trc/00056_00006.trc
DataRate	CameraRate	NumFrames	NumMarkers	Units	OrigDataRate	OrigDataStartFrame	OrigNumFrames
100.000000	100.000000	4	54	mm	100.000000	382	510
Frame#	Time	RPSI			LPSI			L3			STRN			T10			C7			CLAV			RBAK			LBAK			LSHO			LUPA			LAEL			LAOL			LWTS			LWPS			LFRA			LHPS			LHTS			RSHO			RUPA			RAEL			RAOL			RWTS			RWPS			RFRA			RIFD			RHTS			RHPS			RBHD			LFHD			RFHD			LBHD			LHIP			RHIP			RASI			LASI			LKNE			LTHI			LANK			LTIP			LTOE			LMT1			LMT5			LHEE			RKNE			RTHI			RANK			RTIP			RTOE			RMT1			RMT5			RHEE			LIFD			*53			
		X1	Y1	Z1	X2	Y2	Z2	X3	Y3	Z3	X4	Y4	Z4	X5	Y5	Z5	X6	Y6	Z6	X7	Y7	Z7	X8	Y8	Z8	X9	Y9	Z9	X10	Y10	Z10	X11	Y11	Z11	X12	Y12	Z12	X13	Y13	Z13	X14	Y14	Z14	X15	Y15	Z15	X16	Y16	Z16	X17	Y17	Z17	X18	Y18	Z18	X19	Y19	Z19	X20	Y20	Z20	X21	Y21	Z21	X22	Y22	Z22	X23	Y23	Z23	X24	Y24	Z24	X25	Y25	Z25	X26	Y26	Z26	X27	Y27	Z27	X28	Y28	Z28	X29	Y29	Z29	X30	Y30	Z30	X31	Y31	Z31	X32	Y32	Z32	X33	Y33	Z33	X34	Y34	Z34	X35	Y35	Z35	X36	Y36	Z36	X37	Y37	Z37	X38	Y38	Z38	X39	Y39	Z39	X40	Y40	Z40	X41	Y41	Z41	X42	Y42	Z42	X43	Y43	Z43	X44	Y44	Z44	X45	Y45	Z45	X46	Y46	Z46	X47	Y47	Z47	X48	Y48	Z48	X49	Y49	Z49	X50	Y50	Z50	X51	Y51	Z51	X52	Y52	Z52	X53	Y53	Z53	X54	Y54	Z54	

383	3.82	-836.4960327148438	1035.438842773438	-68.45466613769531	-861.481689453125	1030.161499023438	-242.3329620361328	-840.9647827148438	1098.195190429688	-156.4664459228516	-568.1295776367188	1269.38037109375	-180.9074401855469	-840.8124389648438	1231.545043945312	-152.6364593505859	-756.3572998046875	1491.854736328125	-166.6464080810547	-586.7092895507812	1386.55126953125	-182.2346801757812	-821.9638061523438	1359.691284179688	-82.03886413574219	-791.74951171875	1454.52099609375	-264.3817443847656	-697.3301391601562	1448.727905273438	-346.9556579589844	-731.1110229492188	1322.684814453125	-421.1318359375	-724.251953125	1105.21923828125	-437.2245483398438	-775.1390380859375	1094.871215820312	-344.6190490722656	-611.2935180664062	877.4180908203125	-372.38330078125	-679.5904541015625	855.3905639648438	-416.7618713378906	-700.9750366210938	995.6427001953125	-440.3686828613281	-636.6390380859375	778.5132446289062	-411.5461120605469	-580.1507568359375	799.8341674804688	-373.9974060058594	-677.85595703125	1452.158447265625	0.8526092767715454	-684.9309692382812	1386.04736328125	67.07759094238281	-713.381591796875	1127.862182617188	129.0089721679688	-708.979248046875	1095.347900390625	34.60865783691406	-561.1727905273438	881.8117065429688	90.92271423339844	-625.3002319335938	864.0850830078125	150.6081848144531	-696.4165649414062	1047.279541015625	142.7936859130859	-549.7992553710938	693.4473876953125	77.49738311767578	-532.425048828125	780.1304321289062	93.12526702880859	-582.828857421875	776.3565063476562	151.4288024902344	-700.069091796875	1673.517578125	-232.3196105957031	-523.041259765625	1675.5869140625	-108.3746948242188	-521.94189453125	1686.631469726562	-234.0339202880859	-692.6862182617188	1653.290283203125	-95.48984527587891	-769.01953125	971.0547485351562	-347.6348876953125	-771.3933715820312	953.7926635742188	-0.2953946590423584	-647.790771484375	964.0374145507812	-29.51859474182129	-653.099365234375	971.9093017578125	-294.9485473632812	-573.9671020507812	523.6100463867188	-320.360107421875	-639.0814819335938	658.96826171875	-350.8571166992188	-741.6771850585938	71.52503204345703	-360.1567993164062	-666.4078369140625	285.3768615722656	-356.0611877441406	-542.2130126953125	54.89925765991211	-370.44140625	-583.3167114257812	53.8515625	-313.6444091796875	-645.8580322265625	51.18257904052734	-407.0606384277344	-786.510986328125	75.40350341796875	-280.3173522949219	-728.3074340820312	507.3551330566406	-46.33407211303711	-703.9945678710938	775.7241821289062	-6.830288887023926	-876.9928588867188	43.78087997436523	-75.11549377441406	-763.5667724609375	384.8204040527344	-46.34089660644531	-661.4612426757812	43.82347106933594	-109.9183883666992	-721.2504272460938	46.41892623901367	-149.4668884277344	-751.158447265625	50.11194610595703	-56.32785797119141	-924.5969848632812	46.53842926025391	-133.9991760253906	-568.9080810546875	698.7813110351562	-342.8939208984375	nan	nan	nan	
384	3.83	-838.9599609375	1035.278076171875	-68.38028717041016	-863.9158325195312	1029.9658203125	-242.2589569091797	-843.7057495117188	1097.824096679688	-156.4738159179688	-571.3477783203125	1269.970703125	-181.0200958251953	-843.8143310546875	1231.273681640625	-152.8734436035156	-760.3173217773438	1491.904418945312	-167.0137023925781	-590.2735595703125	1387.052734375	-182.4193115234375	-825.5542602539062	1359.580444335938	-82.40467071533203	-795.5769653320312	1454.323364257812	-264.7327575683594	-701.1058349609375	1448.806884765625	-347.2750244140625	-734.55029296875	1322.573852539062	-421.3789367675781	-726.7996826171875	1105.205444335938	-437.609375	-777.8740234375	1094.666625976562	-345.0997314453125	-613.8045043945312	877.4255981445312	-372.3580627441406	-681.7028198242188	855.4747314453125	-417.3368835449219	-703.254638671875	995.6649780273438	-440.7149047851562	-638.8363647460938	778.5756225585938	-411.9495239257812	-582.7308349609375	799.745361328125	-373.8084716796875	-681.7646484375	1452.420654296875	0.5889906883239746	-688.9574584960938	1386.375732421875	66.85122680664062	-718.16552734375	1128.334106445312	128.7533416748047	-713.6358642578125	1095.786987304688	34.35302734375	-567.098876953125	881.4949340820312	91.10645294189453	-631.4225463867188	864.2037353515625	150.7636260986328	-701.536865234375	1047.730102539062	142.6192016601562	-556.9010009765625	692.9664916992188	77.97227478027344	-539.0731201171875	779.5761108398438	93.44490814208984	-589.5120239257812	776.2376708984375	151.7518768310547	-705.1132202148438	1673.542358398438	-232.5450592041016	-528.4685668945312	1676.777099609375	-108.0903091430664	-527.0725708007812	1688.15869140625	-233.7210540771484	-697.9832763671875	1653.048217773438	-95.78421020507812	-771.3872680664062	970.9320678710938	-347.4684753417969	-773.5992431640625	953.8541259765625	-0.1468441933393478	-650.0155639648438	964.4938354492188	-29.27766990661621	-655.444091796875	971.8407592773438	-294.7017822265625	-578.4439697265625	522.3112182617188	-321.7387084960938	-642.5785522460938	658.6241455078125	-351.2719116210938	-757.8624267578125	74.33661651611328	-361.2981567382812	-677.29736328125	286.117431640625	-357.25390625	-558.865478515625	54.32361221313477	-374.0048522949219	-599.3427734375	53.56518936157227	-316.7820739746094	-663.0369873046875	52.74782180786133	-409.4806518554688	-801.693603515625	78.57937622070312	-280.8847351074219	-729.681884765625	507.6113891601562	-46.06532287597656	-705.9816284179688	775.9021606445312	-6.512869358062744	-877.0280151367188	43.73662567138672	-75.08327484130859	-764.5794677734375	384.9443054199219	-46.24099349975586	-661.5425415039062	43.78994750976562	-110.1356887817383	-721.3226928710938	46.33805465698242	-149.5942230224609	-751.2496337890625	50.17041015625	-56.44049453735352	-924.6648559570312	46.41352844238281	-133.9250030517578	-571.7520141601562	698.6669921875	-342.8309020996094	nan	nan	nan	
385	3.84	-841.3008422851562	1035.065673828125	-68.39993286132812	-866.1847534179688	1029.704956054688	-242.2870635986328	-846.305908203125	1097.406616210938	-156.5951385498047	-574.4586181640625	1270.518310546875	-181.16259765625	-846.6993408203125	1230.9423828125	-153.1975402832031	-764.1724853515625	1491.902709960938	-167.4291534423828	-593.7468872070312	1387.50146484375	-182.6327819824219	-829.0560913085938	1359.414306640625	-82.84079742431641	-799.2828369140625	1454.077392578125	-265.1419372558594	-704.7531127929688	1448.825805664062	-347.6337280273438	-737.8278198242188	1322.410522460938	-421.6676025390625	-729.1402587890625	1105.147705078125	-438.0414123535156	-780.502685546875	1094.41259765625	-345.6846008300781	-616.2749633789062	877.3373413085938	-372.2940673828125	-683.6702270507812	855.5071411132812	-418.0140075683594	-705.3467407226562	995.6402587890625	-441.1136169433594	-640.9124755859375	778.5775756835938	-412.4390563964844	-585.2902221679688	799.5430297851562	-373.5781860351562	-685.5905151367188	1452.620361328125	0.2882475852966309	-692.9004516601562	1386.633544921875	66.58248901367188	-722.8792724609375	1128.725219726562	128.4058074951172	-718.214111328125	1096.16064453125	33.99999237060547	-573.0090942382812	881.077392578125	91.1624755859375	-637.5328979492188	864.2273559570312	150.7909698486328	-706.6119995117188	1048.10107421875	142.3240051269531	-564.0421752929688	692.40576171875	78.27044677734375	-545.7276000976562	778.9338989257812	93.61799621582031	-596.1912841796875	776.02783203125	151.9149932861328	-710.0599365234375	1673.496826171875	-232.8319244384766	-533.8265380859375	1677.909912109375	-107.8661880493164	-532.1192626953125	1689.615844726562	-233.4553070068359	-703.1868896484375	1652.747314453125	-96.14064025878906	-773.59326171875	970.726318359375	-347.3844909667969	-775.6770629882812	953.9099731445312	-0.06734956800937653	-652.0997314453125	964.9151611328125	-29.11175727844238	-657.6214599609375	971.7061157226562	-294.5380554199219	-583.1400756835938	520.829833984375	-323.1026611328125	-646.2338256835938	658.0553588867188	-351.8394775390625	-773.7067260742188	77.201171875	-362.44091796875	-688.0385131835938	286.7889709472656	-358.4114074707031	-575.215576171875	53.78861999511719	-377.314453125	-615.1585083007812	53.30842208862305	-319.7397155761719	-679.8681030273438	54.41851806640625	-411.7842407226562	-816.6226806640625	81.74497985839844	-281.5227966308594	-730.8825073242188	507.8515930175781	-45.79345703125	-707.7893676757812	776.0792846679688	-6.24226713180542	-877.0372924804688	43.71148681640625	-75.06458282470703	-765.4945678710938	385.0572509765625	-46.17491912841797	-661.58642578125	43.72854614257812	-110.3512954711914	-721.3710327148438	46.24259948730469	-149.7303314208984	-751.3059692382812	50.19874954223633	-56.56711196899414	-924.7053833007812	46.33378601074219	-133.8664245605469	-574.6508178710938	698.4354248046875	-342.7981262207031	nan	nan	nan	
386	3.85	-843.5060424804688	1034.819702148438	-68.50259399414062	-868.2982788085938	1029.392700195312	-242.4011383056641	-848.753662109375	1096.95166015625	-156.8308563232422	-577.46240234375	1271.036499023438	-181.3333435058594	-849.4781494140625	1230.566040039062	-153.6107177734375	-767.9236450195312	1491.86181640625	-167.8940582275391	-597.13330078125	1387.911743164062	-182.8711242675781	-832.4690551757812	1359.202392578125	-83.35160827636719	-802.8643188476562	1453.802856445312	-265.6108703613281	-708.2656860351562	1448.808471679688	-348.0312805175781	-740.93408203125	1322.224853515625	-422.0063781738281	-731.2839965820312	1105.070068359375	-438.4993591308594	-783.0225219726562	1094.139526367188	-346.3455200195312	-618.7205200195312	877.1651000976562	-372.218505859375	-685.5401000976562	855.5101318359375	-418.776611328125	-707.2833251953125	995.5942993164062	-441.5531005859375	-642.9156494140625	778.5328369140625	-413.0206909179688	-587.8543701171875	799.24462890625	-373.35107421875	-689.3431396484375	1452.777954101562	-0.05122185871005058	-696.7650756835938	1386.844848632812	66.27301025390625	-727.5106201171875	1129.053588867188	127.9514541625977	-722.6984252929688	1096.489379882812	33.53614807128906	-578.9014282226562	880.5714721679688	91.08277130126953	-643.61474609375	864.1842651367188	150.6937561035156	-711.6290283203125	1048.412231445312	141.8934478759766	-571.2434692382812	691.77490234375	78.41090393066406	-552.3838500976562	778.2124633789062	93.6480712890625	-602.8679809570312	775.7479858398438	151.9299621582031	-714.8998413085938	1673.401123046875	-233.1833343505859	-539.104248046875	1678.986938476562	-107.7013778686523	-537.0743408203125	1691.003784179688	-233.2389526367188	-708.28369140625	1652.40380859375	-96.55585479736328	-775.6611328125	970.4486083984375	-347.3800964355469	-777.6217041015625	953.97509765625	-0.05679933726787567	-654.0247192382812	965.311767578125	-29.03706741333008	-659.6447143554688	971.5216064453125	-294.47265625	-588.0540771484375	519.2040405273438	-324.4522094726562	-650.0543212890625	657.290283203125	-352.5290832519531	-789.148681640625	80.06958770751953	-363.5595703125	-698.6085815429688	287.3855285644531	-359.5303955078125	-591.1867065429688	53.28450012207031	-380.4041442871094	-630.66943359375	53.0845832824707	-322.5244445800781	-696.2767333984375	56.1474609375	-413.9647521972656	-831.225341796875	84.85997009277344	-282.1947021484375	-731.9386596679688	508.0761108398438	-45.53939819335938	-709.4096069335938	776.26318359375	-6.046324253082275	-877.0257568359375	43.70387268066406	-75.05838012695312	-766.3251342773438	385.1683349609375	-46.14384460449219	-661.5984497070312	43.64606475830078	-110.5596389770508	-721.3971557617188	46.13635635375977	-149.8691253662109	-751.330810546875	50.20249557495117	-56.70406723022461	-924.7349853515625	46.2984504699707	-133.8265075683594	-577.6287231445312	698.0955200195312	-342.8483276367188	nan	nan	nan	
